<svg xmlns="http://www.w3.org/2000/svg" xmlns:xlink="http://www.w3.org/1999/xlink" width="500" zoomAndPan="magnify" viewBox="0 0 375 374.999991" height="500" preserveAspectRatio="xMidYMid meet" version="1.0"><path fill="#0866ff" d="M 375.050781 187.535156 C 375.050781 83.953125 291.097656 0 187.535156 0 C 83.972656 0 0 83.953125 0 187.535156 C 0 275.476562 60.542969 349.28125 142.222656 369.546875 L 142.222656 244.84375 L 103.546875 244.84375 L 103.546875 187.535156 L 142.222656 187.535156 L 142.222656 162.84375 C 142.222656 99.019531 171.105469 69.429688 233.769531 69.429688 C 245.652344 69.429688 266.152344 71.75 274.535156 74.089844 L 274.535156 126.03125 C 270.109375 125.5625 262.414062 125.324219 252.871094 125.324219 C 222.121094 125.324219 210.238281 136.972656 210.238281 167.253906 L 210.238281 187.515625 L 271.488281 187.515625 L 260.96875 244.828125 L 210.238281 244.828125 L 210.238281 373.671875 C 303.097656 362.460938 375.050781 283.386719 375.050781 187.515625 Z M 375.050781 187.535156 " fill-opacity="1" fill-rule="nonzero"/><path fill="#ffffff" d="M 260.984375 244.828125 L 271.503906 187.515625 L 210.253906 187.515625 L 210.253906 167.253906 C 210.253906 136.972656 222.140625 125.324219 252.890625 125.324219 C 262.433594 125.324219 270.125 125.5625 274.550781 126.03125 L 274.550781 74.089844 C 266.167969 71.769531 245.667969 69.429688 233.785156 69.429688 C 171.125 69.429688 142.242188 99.019531 142.242188 162.84375 L 142.242188 187.535156 L 103.5625 187.535156 L 103.5625 244.84375 L 142.242188 244.84375 L 142.242188 369.546875 C 156.75 373.148438 171.914062 375.066406 187.550781 375.066406 C 195.242188 375.066406 202.816406 374.597656 210.273438 373.6875 L 210.273438 244.84375 L 261.003906 244.84375 Z M 260.984375 244.828125 " fill-opacity="1" fill-rule="nonzero"/></svg>